<?xml version="1.0" encoding="UTF-8" standalone="no"?>
<svg
   xmlns:dc="http://purl.org/dc/elements/1.1/"
   xmlns:cc="http://creativecommons.org/ns#"
   xmlns:rdf="http://www.w3.org/1999/02/22-rdf-syntax-ns#"
   xmlns:svg="http://www.w3.org/2000/svg"
   xmlns="http://www.w3.org/2000/svg"
   xmlns:sodipodi="http://sodipodi.sourceforge.net/DTD/sodipodi-0.dtd"
   xmlns:inkscape="http://www.inkscape.org/namespaces/inkscape"
   version="1.1"
   x="0px"
   y="0px"
   viewBox="0 0 95.000778 73.75"
   enable-background="new 0 0 100 100"
   xml:space="preserve"
   id="svg2"
   inkscape:version="0.91 r13725"
   sodipodi:docname="noun_Hamburger_802109.svg"
   width="95.000778"
   height="73.75"><metadata
     id="metadata28"><rdf:RDF><cc:Work
         rdf:about=""><dc:format>image/svg+xml</dc:format><dc:type
           rdf:resource="http://purl.org/dc/dcmitype/StillImage" /><dc:title></dc:title></cc:Work></rdf:RDF></metadata><defs
     id="defs26" /><sodipodi:namedview
     pagecolor="#ffffff"
     bordercolor="#666666"
     borderopacity="1"
     objecttolerance="10"
     gridtolerance="10"
     guidetolerance="10"
     inkscape:pageopacity="0"
     inkscape:pageshadow="2"
     inkscape:window-width="751"
     inkscape:window-height="480"
     id="namedview24"
     showgrid="false"
     fit-margin-top="0"
     fit-margin-left="0"
     fit-margin-right="0"
     fit-margin-bottom="0"
     inkscape:zoom="1.888"
     inkscape:cx="47.250775"
     inkscape:cy="24.134004"
     inkscape:window-x="10"
     inkscape:window-y="34"
     inkscape:window-maximized="0"
     inkscape:current-layer="svg2" /><g
     id="g4"
     transform="translate(-2.7492248,-13.125)"><path
       d="m 8.75,66.625 0,0 c 0,13.945 11.305,20.25 25.25,20.25 l 32.5,0 c 13.945,0 25.25,-6.305 25.25,-20.25 l 0,0 -83,0 z"
       id="path6"
       inkscape:connector-curvature="0" /></g><g
     id="g8"
     transform="translate(-2.7492248,-13.125)"><path
       d="m 75.146,49.811 c -0.45,0 -0.92,-0.041 -1.411,-0.128 -2.416,-0.434 -4.081,-1.344 -5.55,-2.147 -1.775,-0.971 -3.056,-1.671 -5.278,-1.441 -1.69,0.178 -2.578,0.755 -3.518,1.366 -1.419,0.922 -3.029,1.967 -6.504,1.098 -1.821,-0.455 -3.167,-1.192 -4.354,-1.842 -2.197,-1.203 -3.522,-1.929 -6.856,-0.246 -0.98,0.495 -1.805,0.94 -2.523,1.327 -4.061,2.191 -5.448,2.721 -10.297,0.414 C 27.401,47.521 26.281,46.822 25.38,46.26 22.958,44.748 22.227,44.292 18.92,45.946 12.934,48.938 9.871,49.355 3.535,45.923 2.806,45.528 2.536,44.618 2.931,43.89 c 0.394,-0.729 1.304,-1 2.033,-0.604 5.441,2.948 7.366,2.604 12.615,-0.023 4.587,-2.292 6.465,-1.373 9.39,0.453 0.879,0.548 1.876,1.17 3.175,1.788 3.691,1.755 4.061,1.557 7.584,-0.345 0.738,-0.398 1.587,-0.856 2.596,-1.366 4.743,-2.393 7.237,-1.028 9.649,0.293 1.078,0.591 2.193,1.202 3.641,1.563 2.211,0.554 2.896,0.106 4.141,-0.703 1.083,-0.704 2.432,-1.581 4.838,-1.834 3.151,-0.331 5.124,0.748 7.032,1.792 1.33,0.727 2.705,1.479 4.64,1.826 2.276,0.41 3.831,-0.81 5.632,-2.22 1.446,-1.132 2.942,-2.303 4.886,-2.589 2.418,-0.359 4.512,0.788 6.529,1.895 1.676,0.919 3.258,1.788 4.938,1.788 0.828,0 1.5,0.671 1.5,1.5 0,0.829 -0.672,1.5 -1.5,1.5 -2.45,0 -4.539,-1.146 -6.382,-2.157 -1.728,-0.948 -3.217,-1.77 -4.65,-1.558 -1.155,0.17 -2.281,1.051 -3.473,1.984 -1.698,1.328 -3.755,2.938 -6.599,2.938 z"
       id="path10"
       inkscape:connector-curvature="0" /></g><g
     id="g12"
     transform="translate(-2.7492248,-13.125)"><path
       d="m 97.25,57.375 c 0,2.348 -1.902,4.25 -4.25,4.25 l -85.5,0 c -2.348,0 -4.25,-1.902 -4.25,-4.25 l 0,0 c 0,-2.348 1.902,-4.25 4.25,-4.25 l 85.5,0 c 2.348,0 4.25,1.902 4.25,4.25 l 0,0 z"
       id="path14"
       inkscape:connector-curvature="0" /></g><g
     id="g16"
     transform="translate(-2.7492248,-13.125)"><path
       d="m 66.5,13.125 -32.5,0 c -13.945,0 -25.25,11.305 -25.25,25.25 l 83,0 C 91.75,24.43 80.445,13.125 66.5,13.125 Z M 31.75,32.188 c -2.555,0 -4.625,-1.007 -4.625,-2.25 0,-1.243 2.07,-2.25 4.625,-2.25 2.555,0 4.625,1.007 4.625,2.25 0,1.243 -2.07,2.25 -4.625,2.25 z M 41,21.813 c -2.555,0 -4.625,-1.007 -4.625,-2.25 0,-1.243 2.07,-2.25 4.625,-2.25 2.555,0 4.625,1.007 4.625,2.25 0,1.243 -2.07,2.25 -4.625,2.25 z m 9.25,10.375 c -2.555,0 -4.625,-1.007 -4.625,-2.25 0,-1.243 2.07,-2.25 4.625,-2.25 2.554,0 4.625,1.007 4.625,2.25 0,1.243 -2.07,2.25 -4.625,2.25 z M 59.5,21.813 c -2.555,0 -4.625,-1.007 -4.625,-2.25 0,-1.243 2.07,-2.25 4.625,-2.25 2.555,0 4.625,1.007 4.625,2.25 0,1.243 -2.07,2.25 -4.625,2.25 z m 9.25,10.375 c -2.555,0 -4.625,-1.007 -4.625,-2.25 0,-1.243 2.07,-2.25 4.625,-2.25 2.555,0 4.625,1.007 4.625,2.25 0,1.243 -2.07,2.25 -4.625,2.25 z"
       id="path18"
       inkscape:connector-curvature="0" /></g></svg>