<?xml version="1.0" encoding="UTF-8" standalone="no"?>
<svg
   xmlns:dc="http://purl.org/dc/elements/1.1/"
   xmlns:cc="http://creativecommons.org/ns#"
   xmlns:rdf="http://www.w3.org/1999/02/22-rdf-syntax-ns#"
   xmlns:svg="http://www.w3.org/2000/svg"
   xmlns="http://www.w3.org/2000/svg"
   xmlns:sodipodi="http://sodipodi.sourceforge.net/DTD/sodipodi-0.dtd"
   xmlns:inkscape="http://www.inkscape.org/namespaces/inkscape"
   version="1.1"
   x="0px"
   y="0px"
   viewBox="0 0 82.000313 66.000443"
   id="svg2"
   inkscape:version="0.91 r13725"
   sodipodi:docname="noun_Home_1743000.svg"
   width="82.000313"
   height="66.000443">
  <metadata
     id="metadata16">
    <rdf:RDF>
      <cc:Work
         rdf:about="">
        <dc:format>image/svg+xml</dc:format>
        <dc:type
           rdf:resource="http://purl.org/dc/dcmitype/StillImage" />
        <dc:title></dc:title>
      </cc:Work>
    </rdf:RDF>
  </metadata>
  <defs
     id="defs14" />
  <sodipodi:namedview
     pagecolor="#ffffff"
     bordercolor="#666666"
     borderopacity="1"
     objecttolerance="10"
     gridtolerance="10"
     guidetolerance="10"
     inkscape:pageopacity="0"
     inkscape:pageshadow="2"
     inkscape:window-width="751"
     inkscape:window-height="480"
     id="namedview12"
     showgrid="false"
     fit-margin-top="0"
     fit-margin-left="0"
     fit-margin-right="0"
     fit-margin-bottom="0"
     inkscape:zoom="1.888"
     inkscape:cx="-22.029506"
     inkscape:cy="20.50022"
     inkscape:window-x="10"
     inkscape:window-y="34"
     inkscape:window-maximized="0"
     inkscape:current-layer="svg2" />
  <g
     transform="translate(-8.9998454,-969.36195)"
     id="g4">
    <path
       style="color:#000000;text-indent:0;text-transform:none;direction:ltr;block-progression:tb;baseline-shift:baseline;display:inline;overflow:visible;visibility:visible;fill:#000000;fill-opacity:1;stroke:none;marker:none;enable-background:accumulate"
       d="m 49.9945,969.36239 c -0.61421,0.011 -1.23798,0.22983 -1.84375,0.625 l -38,30.00001 c -0.9761602,0.9692 -1.6623802,3.0562 -0.6562502,4.3437 1.0061302,1.2876 3.1221902,1.4603 4.3437502,0.375 l 36.15625,-28.53121 36.1562,28.53121 c 1.2216,1.0853 3.3823,0.9462 4.3438,-0.375 0.8437,-1.1592 0.636,-3.3774 -0.6562,-4.3437 l -13.8438,-10.93751 0,-16.6875 a 3.0003,3.0003 0 0 0 -3,-3 l -8,0 a 3.0003,3.0003 0 0 0 -3,3 l 0,5.65625 -10.15625,-8.03125 c -0.62489,-0.43912 -1.22954,-0.63599 -1.84375,-0.625 z m 18,6 2,0 0,8.96875 -2,-1.59375 0,-7.375 z m -42,23.28121 -6,4.75 0,28.9688 a 3.0003,3.0003 0 0 0 3,3 l 19,0 a 3.0003,3.0003 0 0 0 3,-3 l 0,-12 c 0,-2.8219 2.17811,-5 5,-5 2.82189,0 5,2.1781 5,5 l 0,12 a 3.0003,3.0003 0 0 0 3,3 l 19,0 a 3.0003,3.0003 0 0 0 3,-3 l 0,-28.9688 -6,-4.75 0,30.7188 -13,0 0,-9 c 0,-6.0421 -4.95789,-11 -11,-11 -6.04211,0 -11,4.9579 -11,11 l 0,9 -13,0 0,-30.7188 z"
       visibility="visible"
       display="inline"
       overflow="visible"
       id="path6"
       inkscape:connector-curvature="0" />
  </g>
</svg>
