<?xml version="1.0" encoding="UTF-8" standalone="no"?>
<svg
   xmlns:dc="http://purl.org/dc/elements/1.1/"
   xmlns:cc="http://creativecommons.org/ns#"
   xmlns:rdf="http://www.w3.org/1999/02/22-rdf-syntax-ns#"
   xmlns:svg="http://www.w3.org/2000/svg"
   xmlns="http://www.w3.org/2000/svg"
   xmlns:sodipodi="http://sodipodi.sourceforge.net/DTD/sodipodi-0.dtd"
   xmlns:inkscape="http://www.inkscape.org/namespaces/inkscape"
   version="1.1"
   x="0px"
   y="0px"
   viewBox="0 0 59.049999 91.55571"
   xml:space="preserve"
   id="svg2"
   inkscape:version="0.91 r13725"
   sodipodi:docname="poire.svg"
   width="59.049999"
   height="91.55571"><metadata
     id="metadata32"><rdf:RDF><cc:Work
         rdf:about=""><dc:format>image/svg+xml</dc:format><dc:type
           rdf:resource="http://purl.org/dc/dcmitype/StillImage" /><dc:title></dc:title></cc:Work></rdf:RDF></metadata><defs
     id="defs30" /><sodipodi:namedview
     pagecolor="#ffffff"
     bordercolor="#666666"
     borderopacity="1"
     objecttolerance="10"
     gridtolerance="10"
     guidetolerance="10"
     inkscape:pageopacity="0"
     inkscape:pageshadow="2"
     inkscape:window-width="751"
     inkscape:window-height="480"
     id="namedview28"
     showgrid="false"
     fit-margin-top="0"
     fit-margin-left="0"
     fit-margin-right="0"
     fit-margin-bottom="0"
     inkscape:zoom="1.888"
     inkscape:cx="23.55666"
     inkscape:cy="19.245691"
     inkscape:window-x="10"
     inkscape:window-y="34"
     inkscape:window-maximized="0"
     inkscape:current-layer="svg2" /><g
     id="g4"
     transform="translate(-20.475,-4.9625)"><g
       id="g6"><path
         d="m 52.7,96.5 c -0.9,0 -1.8,0 -2.7,-0.1 C 41.7,97.2 33.4,93.9 27.9,87.7 18,76.5 18,59.7 27.9,48.6 32,44 34.2,38.3 34.5,32.3 34.9,25.5 39.5,19.8 46,18 c 1.2,-0.4 2.4,-0.3 3.2,-0.2 0.5,0.1 1,0.1 1.4,0 1,-0.1 2.1,0 3.3,0.2 l 0.1,0 c 6.5,1.8 11.2,7.5 11.5,14.2 0.3,6 2.6,11.7 6.6,16.3 9.9,11.2 9.9,28 0,39.1 -4.9,5.7 -12,8.9 -19.4,8.9 z m -2.7,-3.1 0.2,0 c 7.4,0.8 14.8,-2 19.7,-7.7 8.9,-10.1 8.9,-25.2 0,-35.3 C 65.4,45.2 62.8,39 62.5,32.3 62.2,26.8 58.5,22.2 53.2,20.8 52.4,20.6 51.7,20.6 51,20.6 c -0.7,0.1 -1.4,0.1 -2.2,0 -0.8,-0.1 -1.4,0 -2,0.1 -5.4,1.5 -9.1,6.1 -9.4,11.6 -0.3,6.7 -2.9,12.9 -7.4,18.1 -8.9,10.1 -8.9,25.2 0,35.3 4.9,5.6 12.3,8.5 19.8,7.7 l 0.2,0 z"
         id="path8"
         inkscape:connector-curvature="0" /></g></g><g
     id="g10"
     transform="translate(-20.475,-4.9625)"><path
       d="m 50.9,19.2 0,-13.3 C 50.9,5.5 50.6,5.1 50.2,5 49.5,4.9 48.7,5 48,5.3 47.7,5.5 47.5,5.8 47.5,6.2 l 1.6,13"
       id="path12"
       inkscape:connector-curvature="0" /></g><g
     id="g14"
     transform="translate(-20.475,-4.9625)"><g
       id="g16"><path
         d="m 54.7,63.1 c 0.8,0.8 1.1,2 0.8,3.1 -0.2,0.8 -1,1.3 -1.8,1 -0.5,-0.1 -0.9,-0.5 -1,-1 l -1.9,-7 3.9,3.9 z"
         id="path18"
         inkscape:connector-curvature="0" /></g><g
       id="g20"><path
         d="m 45.3,63.1 c -0.8,0.8 -1.1,2 -0.8,3.1 0.1,0.5 0.5,0.9 1,1 0.8,0.2 1.6,-0.3 1.8,-1 l 1.9,-7 -3.9,3.9 z"
         id="path22"
         inkscape:connector-curvature="0" /></g></g></svg>