<?xml version="1.0" encoding="UTF-8" standalone="no"?>
<svg
   xmlns:dc="http://purl.org/dc/elements/1.1/"
   xmlns:cc="http://creativecommons.org/ns#"
   xmlns:rdf="http://www.w3.org/1999/02/22-rdf-syntax-ns#"
   xmlns:svg="http://www.w3.org/2000/svg"
   xmlns="http://www.w3.org/2000/svg"
   xmlns:sodipodi="http://sodipodi.sourceforge.net/DTD/sodipodi-0.dtd"
   xmlns:inkscape="http://www.inkscape.org/namespaces/inkscape"
   version="1.1"
   x="0px"
   y="0px"
   viewBox="-909 491 78.613831 87.300003"
   enable-background="new -909 491 100 100"
   xml:space="preserve"
   id="svg2"
   inkscape:version="0.91 r13725"
   sodipodi:docname="pomme.svg"
   width="78.613831"
   height="87.300003"><metadata
     id="metadata14"><rdf:RDF><cc:Work
         rdf:about=""><dc:format>image/svg+xml</dc:format><dc:type
           rdf:resource="http://purl.org/dc/dcmitype/StillImage" /><dc:title></dc:title></cc:Work></rdf:RDF></metadata><defs
     id="defs12" /><sodipodi:namedview
     pagecolor="#ffffff"
     bordercolor="#666666"
     borderopacity="1"
     objecttolerance="10"
     gridtolerance="10"
     guidetolerance="10"
     inkscape:pageopacity="0"
     inkscape:pageshadow="2"
     inkscape:window-width="751"
     inkscape:window-height="480"
     id="namedview10"
     showgrid="false"
     fit-margin-top="0"
     fit-margin-left="0"
     fit-margin-right="0"
     fit-margin-bottom="0"
     inkscape:zoom="1.888"
     inkscape:cx="39.208572"
     inkscape:cy="31.6"
     inkscape:window-x="10"
     inkscape:window-y="34"
     inkscape:window-maximized="0"
     inkscape:current-layer="svg2" /><path
     d="m -834.59143,522.7 c -3.9,-7.4 -9.9,-12.1 -16.9,-13.3 -3.8,-0.6 -7.6,-0.2 -11.4,1.3 -1.7,0.7 -3.6,1.1 -5.4,1.2 0,-0.1 0.1,-0.2 0.1,-0.4 l 0,-11.2 c 0,-0.8 -0.7,-1.5 -1.5,-1.5 -0.8,0 -1.5,0.7 -1.5,1.5 l 0,0.1 c -0.7,-1.8 -1.6,-3.5 -3.1,-5 -4.1,-4.1 -10.5,-4.4 -12.3,-4.4 -0.3,0 -0.5,0 -0.5,0 -0.8,0 -1.4,0.7 -1.4,1.4 0,0.3 -0.3,8.1 4.4,12.8 4.1,4.1 10.5,4.4 12.3,4.4 0.3,0 0.5,0 0.5,0 0.1,0 0.1,0 0.1,0 l 0,1.9 c 0,0.1 0,0.3 0.1,0.4 -1.9,-0.1 -3.7,-0.5 -5.4,-1.2 -3.7,-1.5 -7.6,-1.9 -11.4,-1.3 -7.1,1.2 -13.1,5.9 -16.9,13.3 -3.8,7.3 -5.1,16.3 -3.6,25.3 2.8,17.3 15.1,30.3 28.4,30.3 1.1,0 2.2,-0.1 3.3,-0.3 0.7,-0.1 1.4,-0.3 2.1,-0.5 3.2,-0.9 6.6,-0.9 9.9,0 0.7,0.2 1.4,0.3 2.1,0.5 1.1,0.2 2.2,0.3 3.3,0.3 0,0 0,0 0,0 13.4,0 25.6,-13 28.4,-30.3 1.3,-9.1 0.1,-18.1 -3.7,-25.3 z m -47.5,-19.6 c -2.7,-2.7 -3.3,-6.9 -3.5,-9.1 2.1,0.1 6.4,0.8 9.1,3.5 2.7,2.7 3.3,6.9 3.5,9.1 -2.2,-0.1 -6.4,-0.8 -9.1,-3.5 z m 48.1,44.4 c -2.6,15.8 -13.5,27.8 -25.5,27.8 -0.9,0 -1.9,-0.1 -2.8,-0.2 -0.6,-0.1 -1.2,-0.2 -1.8,-0.4 -1.9,-0.5 -3.8,-0.8 -5.7,-0.8 -1.9,0 -3.9,0.3 -5.7,0.8 -0.6,0.2 -1.2,0.3 -1.8,0.4 -0.9,0.2 -1.9,0.2 -2.8,0.2 -11.9,0 -22.9,-12 -25.5,-27.8 -1.4,-8.5 -0.2,-16.8 3.3,-23.5 3.4,-6.5 8.7,-10.7 14.8,-11.7 3.2,-0.5 6.6,-0.1 9.8,1.1 5.1,2 10.9,2 16,0 3.2,-1.3 6.5,-1.7 9.8,-1.1 6.1,1 11.4,5.2 14.8,11.7 3.3,6.8 4.5,15.1 3.1,23.5 z"
     id="path4"
     inkscape:connector-curvature="0" /></svg>