<?xml version="1.0" encoding="UTF-8" standalone="no"?>
<svg
   xmlns:dc="http://purl.org/dc/elements/1.1/"
   xmlns:cc="http://creativecommons.org/ns#"
   xmlns:rdf="http://www.w3.org/1999/02/22-rdf-syntax-ns#"
   xmlns:svg="http://www.w3.org/2000/svg"
   xmlns="http://www.w3.org/2000/svg"
   xmlns:sodipodi="http://sodipodi.sourceforge.net/DTD/sodipodi-0.dtd"
   xmlns:inkscape="http://www.inkscape.org/namespaces/inkscape"
   version="1.1"
   x="0px"
   y="0px"
   viewBox="0 0 86.96804 80.839554"
   enable-background="new 0 0 90 90"
   xml:space="preserve"
   id="svg2"
   inkscape:version="0.91 r13725"
   sodipodi:docname="noun_tomato_122067.svg"
   width="86.96804"
   height="80.839554"><metadata
     id="metadata14"><rdf:RDF><cc:Work
         rdf:about=""><dc:format>image/svg+xml</dc:format><dc:type
           rdf:resource="http://purl.org/dc/dcmitype/StillImage" /><dc:title></dc:title></cc:Work></rdf:RDF></metadata><defs
     id="defs12" /><sodipodi:namedview
     pagecolor="#ffffff"
     bordercolor="#666666"
     borderopacity="1"
     objecttolerance="10"
     gridtolerance="10"
     guidetolerance="10"
     inkscape:pageopacity="0"
     inkscape:pageshadow="2"
     inkscape:window-width="751"
     inkscape:window-height="480"
     id="namedview10"
     showgrid="false"
     fit-margin-top="0"
     fit-margin-left="0"
     fit-margin-right="0"
     fit-margin-bottom="0"
     inkscape:zoom="2.0977778"
     inkscape:cx="44.172412"
     inkscape:cy="30.65"
     inkscape:window-x="10"
     inkscape:window-y="34"
     inkscape:window-maximized="0"
     inkscape:current-layer="svg2" /><path
     d="m 78.272412,14.439553 c -5.3,-5.2999998 -12.1,-8.2999998 -18.5,-8.2999998 -0.7,0 -1.4,0 -2,0.1 5.9,-1.7 11.6,-2.4 11.7,-2.5 l -0.1,-2 c -11,-0.3 -18.1,2.9 -22.2,5.8 0.8,-2.3 1.3,-4.6 1.4,-5.6 0.1,-1.39999995 -1.6,-2.29999995 -3.5,-1.79999995 -1.3,0.3 -2.2,6.09999995 -2.6,9.39999995 -3,-2.7 -6.7,-6.7 -22.8,-8.3 l -0.1,2 c 0.1,0 2.8,0.7 10,2.7 -0.4,0 -1.7,0.1 -2.2,0.1 -6.4,0 -13.1,3 -18.5000001,8.2999998 -7.3,7.2 -9.30000003,19.9 -8.80000003,29.3 0.7,12.4 5.30000003,22 13.70000013,28.5 2.7,2 12,8.7 20.6,8.7 0.8,0 1.6,-0.1 2.4,-0.2 1.7,-0.3 3,-1 4.1,-1.7 0.9,-0.5 1.7,-1 2.3,-1 0.1,0 0.1,0 0.2,0 l 0.1,0 0.2,0 c 0.6,0 1.4,0.4 2.3,1 1.2,0.6 2.5,1.4 4.1,1.7 0.8,0.1 1.6,0.2 2.4,0.2 8.6,0 18,-6.7 20.6,-8.7 8.5,-6.5 13.1,-16.1 13.7,-28.5 0.9,-9.4 -1.2,-22 -8.5,-29.2 z m 6.9,29.1 c -0.6,11.8 -5,20.9 -13,27 -2.5,2 -11.4,8.3 -19.4,8.3 -0.7,0 -1.4,-0.1 -2.1,-0.2 -1.3,-0.2 -2.4,-0.8 -3.5,-1.4 -1.1,-0.6 -2.2,-1.2 -3.3,-1.2 -0.1,0 -0.1,0 -0.2,0 -0.1,0 -0.2,0 -0.2,0 -1.2,0 -2.2,0.6 -3.3,1.2 -1.1,0.6 -2.2,1.2 -3.5,1.4 -0.7,0.1 -1.3,0.2 -2.1,0.2 -8,0 -16.9,-6.4 -19.4,-8.3 -8.0000001,-6.1 -12.3000001,-15.2 -13.0000001,-27 -0.5,-8.6 1.4,-21 8.2000001,-27.8 5,-4.9 11.2,-7.6999998 17.1,-7.6999998 1.8,0 3.5,0.2 5.2,0.7 0.6,0.2 1.4,0.6 2.3,1.2 -0.5,0 -1.1,0 -1.7,0 -2.8,0 -5.8,0.2999998 -8.9,0.9999998 l 0.3,2 c 0,0 3.6,-0.4 7.6,-0.4 3.2,0 5.4,0.2 6.8,0.6 -2.8,1.5 -6.1,4.3 -5.3,7.8 l 1.8,0.6 0,0 c 0.3,-2.2 1.9,-4.9 6.6,-7 0.3,0.2 0.5,0.3 0.7,0.3 0.2,0.1 0.3,0.1 0.5,0.1 0.2,0 0.3,0 0.5,-0.1 0.4,-0.1 0.8,-0.4 1.5,-0.9 1.1,-0.8 3,-1.2 5.6,-1.2 4.5,0 9.4,1.3 9.5,1.3 l 0.6,-1.9 c -3.1,-1.3 -6.2,-2 -9.1,-2.1 0.9,-0.4999998 1.7,-0.9999998 2.3,-1.1999998 1.7,-0.5 3.4,-0.7 5.2,-0.7 5.9,0 12.1,2.7999998 17.1,7.6999998 7.2,6.7 9,19.1 8.6,27.7 z"
     id="path4"
     inkscape:connector-curvature="0" /></svg>