<?xml version="1.0" encoding="UTF-8" standalone="no"?><svg width="6000" height="4000" viewBox="0 0 6000 4000" xmlns="http://www.w3.org/2000/svg" xmlns:xlink="http://www.w3.org/1999/xlink"><svg viewBox="-247.98 370.9 98.84 98.84" width="2000" height="2000" id="cerise" xmlns="http://www.w3.org/2000/svg"><switch transform="translate(-2.1 -.06)"><g><path d="M-174 419.9c-4 0-7.6.7-10.8 2-6.1-8.1-8.7-18.4-7.1-28.5.1-.8.3-1.6.4-2.4 1.5 5.4 4.5 10.5 8.7 14.8 6.5 6.5 15.1 10.1 23.6 10.1 2.9 0 5.8-.4 8.5-1.3l1-.3.3-1c3.5-10.8.2-23.4-8.5-32.2-8.7-8.8-21.3-12.3-32.1-8.8l-.7.2v-.1c-17.8 5.7-30.7 20.7-33.5 39.2-.4 2.8-.6 5.7-.6 8.6-12.2 2-20.1 11.4-20.1 24.6 0 15 10 25 25 25 11 0 19.4-5.5 23-14.3 3.6 8.9 12 14.3 23 14.3 15 0 25-10 25-25s-10.1-24.9-25.1-24.9zm-40.4.5c-.1-2.7 0-5.4.4-8 1.4-9.1 7.5-20 15.7-25.1-.3 1.2-.5 2.3-.7 3.5-1.9 12.5.2 25.3 7.6 35.5-2.1 2-4.7 5.7-5.6 7.9-3-7.3-9.2-12.3-17.4-13.8zM-180 403c-6.9-6.9-10-16.5-8.3-25.2 13.5 8.6 25.2 20.2 33.9 33.7-8.8 1.7-18.6-1.4-25.6-8.5zm-40.3 9.3c2.5-16 13.1-29.2 28.1-35-.1.6-.2 3.1-.3 3.7-13.5 5.8-23.2 16.1-25.5 30.8-.4 2.7-.6 5.5-.5 8.2h-2.4c0-2.6.2-5.2.6-7.7zm.3 53.6c-12.8 0-21-8.2-21-21s8.2-21 21-21 21 8.2 21 21-8.2 21-21 21zm46 0c-12.8 0-21-8.2-21-21s8.2-21 21-21 21 8.2 21 21-8.2 21-21 21z"/><path d="M-226 431.5c1.8-.7 3.8-1.1 6-1.1v-4c-2.7 0-5.2.4-7.5 1.3l1.5 3.8zM-216.1 426.8l-.7 3.9c7.1 1.2 11.3 6.6 11.3 14.2h4c0-9.6-5.6-16.6-14.6-18.1zM-178.4 431.2c1.7-.5 3.5-.8 5.4-.8v-4c-2.4 0-4.6.3-6.7 1l1.3 3.8zM-168.5 427.1l-1 3.9c6.3 1.6 10 6.8 10 13.9h4c0-8.9-5-15.7-13-17.8z"/></g></switch></svg><svg width="2000" height="2000" viewBox="0 -10.63 95 95" id="hamburger" x="2000" xmlns="http://www.w3.org/2000/svg"><path d="M6 53.5c0 13.945 11.306 20.25 25.25 20.25h32.5C77.697 73.75 89 67.445 89 53.5H6zM72.397 36.686c-.45 0-.92-.041-1.411-.128-2.416-.434-4.081-1.344-5.55-2.147-1.775-.971-3.056-1.671-5.278-1.441-1.69.178-2.578.755-3.518 1.366-1.42.922-3.03 1.967-6.504 1.098-1.821-.455-3.167-1.192-4.354-1.842-2.197-1.203-3.522-1.929-6.856-.246-.98.495-1.805.94-2.523 1.327-4.061 2.191-5.448 2.721-10.297.414-1.454-.691-2.574-1.39-3.475-1.952-2.422-1.512-3.153-1.968-6.46-.314-5.986 2.992-9.05 3.409-15.385-.023a1.499 1.499 0 1 1 1.429-2.637c5.44 2.948 7.366 2.604 12.615-.023 4.587-2.292 6.465-1.373 9.39.453.879.548 1.876 1.17 3.175 1.788 3.69 1.755 4.06 1.557 7.584-.345.738-.398 1.587-.856 2.596-1.366 4.743-2.393 7.237-1.028 9.649.293 1.078.591 2.193 1.202 3.64 1.563 2.212.554 2.897.106 4.142-.703 1.083-.704 2.432-1.581 4.838-1.834 3.15-.331 5.124.748 7.032 1.792 1.33.727 2.705 1.479 4.64 1.826 2.276.41 3.83-.81 5.632-2.22 1.446-1.132 2.942-2.303 4.886-2.589 2.418-.359 4.512.788 6.529 1.895 1.676.919 3.258 1.788 4.938 1.788a1.5 1.5 0 1 1 0 3c-2.45 0-4.54-1.146-6.382-2.157-1.728-.948-3.217-1.77-4.65-1.558-1.155.17-2.281 1.051-3.473 1.984-1.698 1.328-3.755 2.938-6.6 2.938zM94.5 44.25a4.249 4.249 0 0 1-4.25 4.25H4.75A4.249 4.249 0 0 1 .5 44.25 4.249 4.249 0 0 1 4.75 40h85.5a4.249 4.249 0 0 1 4.25 4.25zM63.75 0h-32.5C17.307 0 6 11.305 6 25.25h83C89 11.305 77.697 0 63.75 0zM29 19.063c-2.554 0-4.624-1.007-4.624-2.25s2.07-2.25 4.625-2.25 4.625 1.007 4.625 2.25-2.07 2.25-4.625 2.25zm9.25-10.375c-2.554 0-4.624-1.007-4.624-2.25s2.07-2.25 4.625-2.25 4.625 1.007 4.625 2.25-2.07 2.25-4.625 2.25zm9.25 10.375c-2.554 0-4.624-1.007-4.624-2.25s2.07-2.25 4.625-2.25c2.554 0 4.625 1.007 4.625 2.25s-2.07 2.25-4.625 2.25zm9.25-10.375c-2.554 0-4.624-1.007-4.624-2.25s2.07-2.25 4.625-2.25 4.625 1.007 4.625 2.25-2.07 2.25-4.625 2.25zM66 19.063c-2.554 0-4.624-1.007-4.624-2.25s2.07-2.25 4.625-2.25 4.625 1.007 4.625 2.25-2.07 2.25-4.625 2.25z"/></svg><svg width="2000" height="2000" viewBox="0 -8 82 82" id="home" y="2000" xmlns="http://www.w3.org/2000/svg"><path style="text-indent:0;text-transform:none;block-progression:tb;marker:none" d="M40.995 0c-.615.011-1.238.23-1.844.625l-38 30c-.976.97-1.662 3.057-.656 4.344 1.006 1.288 3.122 1.46 4.343.375L40.995 6.813 77.15 35.344c1.221 1.085 3.382.946 4.344-.375.843-1.159.636-3.377-.657-4.344L66.995 19.688V3a3 3 0 0 0-3-3h-8a3 3 0 0 0-3 3v5.657L42.838.625C42.214.186 41.608-.01 40.995 0zm18 6h2v8.97l-2-1.595V6zm-42 23.282l-6 4.75V63a3 3 0 0 0 3 3h19a3 3 0 0 0 3-3V51c0-2.821 2.178-5 5-5s5 2.179 5 5v12a3 3 0 0 0 3 3h19a3 3 0 0 0 3-3V34.032l-6-4.75V60h-13v-9c0-6.042-4.958-11-11-11s-11 4.958-11 11v9h-13V29.282z" overflow="visible" color="#000"/></svg><svg width="2000" height="2000" viewBox="-16.25 0 91.56 91.56" id="poire" x="2000" y="2000" xmlns="http://www.w3.org/2000/svg"><path d="M32.225 91.537c-.9 0-1.8 0-2.7-.1-8.3.8-16.6-2.5-22.1-8.7-9.9-11.2-9.9-28 0-39.1 4.1-4.6 6.3-10.3 6.6-16.3.4-6.8 5-12.5 11.5-14.3 1.2-.4 2.4-.3 3.2-.2.5.1 1 .1 1.4 0 1-.1 2.1 0 3.3.2h.1c6.5 1.8 11.2 7.5 11.5 14.2.3 6 2.6 11.7 6.6 16.3 9.9 11.2 9.9 28 0 39.1-4.9 5.7-12 8.9-19.4 8.9zm-2.7-3.1h.2c7.4.8 14.8-2 19.7-7.7 8.9-10.1 8.9-25.2 0-35.3-4.5-5.2-7.1-11.4-7.4-18.1-.3-5.5-4-10.1-9.3-11.5-.8-.2-1.5-.2-2.2-.2-.7.1-1.4.1-2.2 0-.8-.1-1.4 0-2 .1-5.4 1.5-9.1 6.1-9.4 11.6-.3 6.7-2.9 12.9-7.4 18.1-8.9 10.1-8.9 25.2 0 35.3 4.9 5.6 12.3 8.5 19.8 7.7h.2z"/><path d="M30.425 14.237V.937c0-.4-.3-.8-.7-.9-.7-.1-1.5 0-2.2.3-.3.2-.5.5-.5.9l1.6 13M34.225 58.138c.8.8 1.1 2 .8 3.1-.2.8-1 1.3-1.8 1-.5-.1-.9-.5-1-1l-1.9-7 3.9 3.9zM24.825 58.138c-.8.8-1.1 2-.8 3.1.1.5.5.9 1 1 .8.2 1.6-.3 1.8-1l1.9-7-3.9 3.9z"/></svg><svg viewBox="-913.34 491 87.3 87.3" width="2000" height="2000" id="pomme" x="4000" xmlns="http://www.w3.org/2000/svg"><path d="M-834.591 522.7c-3.9-7.4-9.9-12.1-16.9-13.3-3.8-.6-7.6-.2-11.4 1.3-1.7.7-3.6 1.1-5.4 1.2 0-.1.1-.2.1-.4v-11.2c0-.8-.7-1.5-1.5-1.5s-1.5.7-1.5 1.5v.1c-.7-1.8-1.6-3.5-3.1-5-4.1-4.1-10.5-4.4-12.3-4.4h-.5c-.8 0-1.4.7-1.4 1.4 0 .3-.3 8.1 4.4 12.8 4.1 4.1 10.5 4.4 12.3 4.4h.6v1.9c0 .1 0 .3.1.4-1.9-.1-3.7-.5-5.4-1.2-3.7-1.5-7.6-1.9-11.4-1.3-7.1 1.2-13.1 5.9-16.9 13.3-3.8 7.3-5.1 16.3-3.6 25.3 2.8 17.3 15.1 30.3 28.4 30.3 1.1 0 2.2-.1 3.3-.3.7-.1 1.4-.3 2.1-.5 3.2-.9 6.6-.9 9.9 0 .7.2 1.4.3 2.1.5 1.1.2 2.2.3 3.3.3 13.4 0 25.6-13 28.4-30.3 1.3-9.1.1-18.1-3.7-25.3zm-47.5-19.6c-2.7-2.7-3.3-6.9-3.5-9.1 2.1.1 6.4.8 9.1 3.5 2.7 2.7 3.3 6.9 3.5 9.1-2.2-.1-6.4-.8-9.1-3.5zm48.1 44.4c-2.6 15.8-13.5 27.8-25.5 27.8-.9 0-1.9-.1-2.8-.2-.6-.1-1.2-.2-1.8-.4-1.9-.5-3.8-.8-5.7-.8-1.9 0-3.9.3-5.7.8-.6.2-1.2.3-1.8.4-.9.2-1.9.2-2.8.2-11.9 0-22.9-12-25.5-27.8-1.4-8.5-.2-16.8 3.3-23.5 3.4-6.5 8.7-10.7 14.8-11.7 3.2-.5 6.6-.1 9.8 1.1 5.1 2 10.9 2 16 0 3.2-1.3 6.5-1.7 9.8-1.1 6.1 1 11.4 5.2 14.8 11.7 3.3 6.8 4.5 15.1 3.1 23.5z"/></svg><svg width="2000" height="2000" viewBox="0 -3.06 86.97 86.97" id="tomate" x="4000" y="2000" xmlns="http://www.w3.org/2000/svg"><path d="M78.272 14.44c-5.3-5.3-12.1-8.3-18.5-8.3-.7 0-1.4 0-2 .1 5.9-1.7 11.6-2.4 11.7-2.5l-.1-2c-11-.3-18.1 2.9-22.2 5.8.8-2.3 1.3-4.6 1.4-5.6.1-1.4-1.6-2.3-3.5-1.8-1.3.3-2.2 6.1-2.6 9.4-3-2.7-6.7-6.7-22.8-8.3l-.1 2c.1 0 2.8.7 10 2.7-.4 0-1.7.1-2.2.1-6.4 0-13.1 3-18.5 8.3-7.3 7.2-9.3 19.9-8.8 29.3.7 12.4 5.3 22 13.7 28.5 2.7 2 12 8.7 20.6 8.7.8 0 1.6-.1 2.4-.2 1.7-.3 3-1 4.1-1.7.9-.5 1.7-1 2.3-1h.5c.6 0 1.4.4 2.3 1 1.2.6 2.5 1.4 4.1 1.7.8.1 1.6.2 2.4.2 8.6 0 18-6.7 20.6-8.7 8.5-6.5 13.1-16.1 13.7-28.5.9-9.4-1.2-22-8.5-29.2zm6.9 29.1c-.6 11.8-5 20.9-13 27-2.5 2-11.4 8.3-19.4 8.3-.7 0-1.4-.1-2.1-.2-1.3-.2-2.4-.8-3.5-1.4-1.1-.6-2.2-1.2-3.3-1.2h-.4c-1.2 0-2.2.6-3.3 1.2-1.1.6-2.2 1.2-3.5 1.4-.7.1-1.3.2-2.1.2-8 0-16.9-6.4-19.4-8.3-8-6.1-12.3-15.2-13-27-.5-8.6 1.4-21 8.2-27.8 5-4.9 11.2-7.7 17.1-7.7 1.8 0 3.5.2 5.2.7.6.2 1.4.6 2.3 1.2h-1.7c-2.8 0-5.8.3-8.9 1l.3 2s3.6-.4 7.6-.4c3.2 0 5.4.2 6.8.6-2.8 1.5-6.1 4.3-5.3 7.8l1.8.6c.3-2.2 1.9-4.9 6.6-7 .3.2.5.3.7.3.2.1.3.1.5.1s.3 0 .5-.1c.4-.1.8-.4 1.5-.9 1.1-.8 3-1.2 5.6-1.2 4.5 0 9.4 1.3 9.5 1.3l.6-1.9c-3.1-1.3-6.2-2-9.1-2.1.9-.5 1.7-1 2.3-1.2 1.7-.5 3.4-.7 5.2-.7 5.9 0 12.1 2.8 17.1 7.7 7.2 6.7 9 19.1 8.6 27.7z"/></svg></svg>